<svg width="26" height="26" viewBox="0 0 26 26" fill="none" xmlns="http://www.w3.org/2000/svg">
<path d="M13 2.4375C7.176 2.4375 2.4375 7.176 2.4375 13C2.4375 18.824 7.176 23.5625 13 23.5625C18.824 23.5625 23.5625 18.824 23.5625 13C23.5625 7.176 18.824 2.4375 13 2.4375ZM13 21.9375C8.07192 21.9375 4.0625 17.9281 4.0625 13C4.0625 8.07192 8.07192 4.0625 13 4.0625C17.9281 4.0625 21.9375 8.07192 21.9375 13C21.9375 17.9281 17.9281 21.9375 13 21.9375ZM18.1458 13C18.1458 13.4485 17.7818 13.8125 17.3333 13.8125H13C12.5515 13.8125 12.1875 13.4485 12.1875 13V7.58333C12.1875 7.13483 12.5515 6.77083 13 6.77083C13.4485 6.77083 13.8125 7.13483 13.8125 7.58333V12.1875H17.3333C17.7818 12.1875 18.1458 12.5515 18.1458 13Z" fill="#223B36"/>
</svg>
