<svg width="26" height="26" viewBox="0 0 26 26" fill="none" xmlns="http://www.w3.org/2000/svg">
<path d="M18.4167 2.97916H7.58333C4.74608 2.97916 2.4375 5.28774 2.4375 8.12499V22.2083C2.4375 22.5366 2.63576 22.8334 2.9391 22.9591C3.03985 23.0013 3.14492 23.0208 3.25 23.0208C3.46125 23.0208 3.66925 22.9385 3.82417 22.7825L6.43933 20.1673C6.695 19.9116 7.03517 19.7708 7.397 19.7708H18.4167C21.2539 19.7708 23.5625 17.4622 23.5625 14.625V8.12499C23.5625 5.28774 21.2539 2.97916 18.4167 2.97916ZM21.9375 14.625C21.9375 16.5663 20.358 18.1458 18.4167 18.1458H7.39809C6.60184 18.1458 5.85434 18.4557 5.291 19.019L4.0625 20.2474V8.12499C4.0625 6.18366 5.642 4.60416 7.58333 4.60416H18.4167C20.358 4.60416 21.9375 6.18366 21.9375 8.12499V14.625ZM9.75 11.375C9.75 11.973 9.26467 12.4583 8.66667 12.4583C8.06867 12.4583 7.58333 11.973 7.58333 11.375C7.58333 10.777 8.06867 10.2917 8.66667 10.2917C9.26467 10.2917 9.75 10.777 9.75 11.375ZM14.0833 11.375C14.0833 11.973 13.598 12.4583 13 12.4583C12.402 12.4583 11.9167 11.973 11.9167 11.375C11.9167 10.777 12.402 10.2917 13 10.2917C13.598 10.2917 14.0833 10.777 14.0833 11.375ZM18.4167 11.375C18.4167 11.973 17.9313 12.4583 17.3333 12.4583C16.7353 12.4583 16.25 11.973 16.25 11.375C16.25 10.777 16.7353 10.2917 17.3333 10.2917C17.9313 10.2917 18.4167 10.777 18.4167 11.375Z" fill="#223B36"/>
</svg>
