<svg width="26" height="26" viewBox="0 0 26 26" fill="none" xmlns="http://www.w3.org/2000/svg">
<path d="M16.8242 10.3242L14.1483 13L16.8242 15.6758C17.1416 15.9932 17.1416 16.5078 16.8242 16.8253C16.666 16.9834 16.458 17.0636 16.25 17.0636C16.042 17.0636 15.834 16.9845 15.6758 16.8253L13 14.1494L10.3242 16.8253C10.166 16.9834 9.958 17.0636 9.75 17.0636C9.542 17.0636 9.33397 16.9845 9.1758 16.8253C8.85839 16.5078 8.85839 15.9932 9.1758 15.6758L11.8517 13L9.1758 10.3242C8.85839 10.0068 8.85839 9.49216 9.1758 9.17474C9.49322 8.85733 10.0078 8.85733 10.3253 9.17474L13.0011 11.8506L15.6769 9.17474C15.9943 8.85733 16.5089 8.85733 16.8263 9.17474C17.1437 9.49216 17.1416 10.0068 16.8242 10.3242ZM23.5625 9.75V16.25C23.5625 20.2822 20.2822 23.5625 16.25 23.5625H9.75C5.71783 23.5625 2.4375 20.2822 2.4375 16.25V9.75C2.4375 5.71783 5.71783 2.4375 9.75 2.4375H16.25C20.2822 2.4375 23.5625 5.71783 23.5625 9.75ZM21.9375 9.75C21.9375 6.61375 19.3863 4.0625 16.25 4.0625H9.75C6.61375 4.0625 4.0625 6.61375 4.0625 9.75V16.25C4.0625 19.3863 6.61375 21.9375 9.75 21.9375H16.25C19.3863 21.9375 21.9375 19.3863 21.9375 16.25V9.75Z" fill="#223B36"/>
</svg>
