<svg width="26" height="26" viewBox="0 0 26 26" fill="none" xmlns="http://www.w3.org/2000/svg">
<path d="M12.9991 13.8122C16.1354 13.8122 18.6866 11.261 18.6866 8.12473C18.6866 4.98848 16.1354 2.43723 12.9991 2.43723C9.86287 2.43723 7.31162 4.98848 7.31162 8.12473C7.31162 11.261 9.86287 13.8122 12.9991 13.8122ZM12.9991 4.06223C15.2395 4.06223 17.0616 5.88439 17.0616 8.12473C17.0616 10.3651 15.2395 12.1872 12.9991 12.1872C10.7588 12.1872 8.93662 10.3651 8.93662 8.12473C8.93662 5.88439 10.7588 4.06223 12.9991 4.06223ZM21.395 19.464V20.5593C21.395 21.5722 21.0255 22.5428 20.3539 23.2914C20.1935 23.4712 19.9714 23.5622 19.7483 23.5622C19.5554 23.5622 19.3615 23.4939 19.2066 23.3553C18.8718 23.0563 18.8448 22.5428 19.1438 22.2081C19.5479 21.7563 19.771 21.1713 19.771 20.5603V19.4651C19.771 17.8249 18.6834 16.4057 17.1244 16.0146C16.8504 15.9453 16.5557 15.9833 16.3163 16.1187C14.2569 17.2648 11.737 17.2604 9.6906 16.1218C9.44577 15.9821 9.15113 15.942 8.87704 16.0135C7.31813 16.4057 6.22934 17.8249 6.22934 19.4651V20.5603C6.22934 21.1724 6.45256 21.7574 6.85664 22.2081C7.15564 22.5428 7.12742 23.0563 6.79376 23.3553C6.45792 23.6553 5.94447 23.6261 5.64655 23.2924C4.97488 22.5428 4.60547 21.5721 4.60547 20.5603V19.4651C4.60547 17.0796 6.19901 15.0126 8.48051 14.4384C9.15543 14.2672 9.88885 14.3648 10.489 14.7071C12.0382 15.5694 13.9579 15.5726 15.5201 14.7038C16.1126 14.3658 16.8461 14.2694 17.5231 14.4395C19.8014 15.0104 21.395 17.0774 21.395 19.464Z" fill="#223B36"/>
</svg>
